<mxfile host="app.diagrams.net" modified="2023-09-30T19:58:31.111Z" agent="Mozilla/5.0 (X11; Linux x86_64) AppleWebKit/537.36 (KHTML, like Gecko) Chrome/117.0.0.0 Safari/537.36" etag="lJl77p0B-GMKNR3qRm7h" version="22.0.0" type="device">
  <diagram name="Simplified" id="c4acf3e9-155e-7222-9cf6-157b1a14988f">
    <mxGraphModel dx="1222" dy="599" grid="1" gridSize="10" guides="1" tooltips="1" connect="1" arrows="1" fold="1" page="1" pageScale="1" pageWidth="650" pageHeight="600" background="none" math="0" shadow="0">
      <root>
        <mxCell id="0" />
        <mxCell id="1" parent="0" />
        <mxCell id="8vVyC6vUNvX2GDnf0Xso-52" style="edgeStyle=orthogonalEdgeStyle;rounded=0;orthogonalLoop=1;jettySize=auto;html=1;exitX=0.25;exitY=1;exitDx=0;exitDy=0;exitPerimeter=0;entryX=0.25;entryY=0;entryDx=0;entryDy=0;endSize=7;startSize=0;" parent="1" source="8vVyC6vUNvX2GDnf0Xso-1" target="8vVyC6vUNvX2GDnf0Xso-2" edge="1">
          <mxGeometry relative="1" as="geometry" />
        </mxCell>
        <mxCell id="8vVyC6vUNvX2GDnf0Xso-1" value="Godot Editor" style="shape=folder;fontStyle=1;spacingTop=10;tabWidth=40;tabHeight=14;tabPosition=left;html=1;whiteSpace=wrap;" parent="1" vertex="1">
          <mxGeometry x="103" y="10" width="110" height="50" as="geometry" />
        </mxCell>
        <mxCell id="8vVyC6vUNvX2GDnf0Xso-48" style="edgeStyle=orthogonalEdgeStyle;rounded=0;orthogonalLoop=1;jettySize=auto;html=1;exitX=1;exitY=0.5;exitDx=0;exitDy=0;entryX=0.5;entryY=0;entryDx=0;entryDy=0;endSize=7;startSize=0;" parent="1" source="8vVyC6vUNvX2GDnf0Xso-2" target="8vVyC6vUNvX2GDnf0Xso-4" edge="1">
          <mxGeometry relative="1" as="geometry" />
        </mxCell>
        <mxCell id="8vVyC6vUNvX2GDnf0Xso-49" style="edgeStyle=orthogonalEdgeStyle;rounded=0;orthogonalLoop=1;jettySize=auto;html=1;exitX=0;exitY=0.25;exitDx=0;exitDy=0;entryX=0.25;entryY=0;entryDx=0;entryDy=0;endSize=7;" parent="1" source="8vVyC6vUNvX2GDnf0Xso-2" target="8vVyC6vUNvX2GDnf0Xso-3" edge="1">
          <mxGeometry relative="1" as="geometry" />
        </mxCell>
        <mxCell id="8vVyC6vUNvX2GDnf0Xso-2" value="EditorPlugin" style="html=1;whiteSpace=wrap;" parent="1" vertex="1">
          <mxGeometry x="103" y="80" width="110" height="50" as="geometry" />
        </mxCell>
        <mxCell id="8vVyC6vUNvX2GDnf0Xso-50" style="edgeStyle=orthogonalEdgeStyle;rounded=0;orthogonalLoop=1;jettySize=auto;html=1;exitX=0.5;exitY=0;exitDx=0;exitDy=0;entryX=0;entryY=0.75;entryDx=0;entryDy=0;endSize=7;" parent="1" source="8vVyC6vUNvX2GDnf0Xso-3" target="8vVyC6vUNvX2GDnf0Xso-2" edge="1">
          <mxGeometry relative="1" as="geometry" />
        </mxCell>
        <mxCell id="8vVyC6vUNvX2GDnf0Xso-3" value="GUI" style="html=1;whiteSpace=wrap;" parent="1" vertex="1">
          <mxGeometry x="13" y="140" width="110" height="50" as="geometry" />
        </mxCell>
        <mxCell id="8vVyC6vUNvX2GDnf0Xso-6" style="edgeStyle=orthogonalEdgeStyle;rounded=0;orthogonalLoop=1;jettySize=auto;html=1;exitX=1;exitY=0.5;exitDx=0;exitDy=0;entryX=0;entryY=0.5;entryDx=0;entryDy=0;endArrow=none;endFill=0;startArrow=diamond;startFill=0;endSize=0;startSize=20;" parent="1" source="8vVyC6vUNvX2GDnf0Xso-4" target="8vVyC6vUNvX2GDnf0Xso-5" edge="1">
          <mxGeometry relative="1" as="geometry" />
        </mxCell>
        <mxCell id="8vVyC6vUNvX2GDnf0Xso-68" value="1&lt;br&gt;" style="edgeLabel;html=1;align=center;verticalAlign=middle;resizable=0;points=[];" parent="8vVyC6vUNvX2GDnf0Xso-6" vertex="1" connectable="0">
          <mxGeometry x="0.7212" y="8" relative="1" as="geometry">
            <mxPoint as="offset" />
          </mxGeometry>
        </mxCell>
        <mxCell id="8vVyC6vUNvX2GDnf0Xso-17" style="edgeStyle=orthogonalEdgeStyle;rounded=0;orthogonalLoop=1;jettySize=auto;html=1;exitX=0.5;exitY=1;exitDx=0;exitDy=0;entryX=0.5;entryY=0;entryDx=0;entryDy=0;endArrow=none;endFill=0;startArrow=diamond;startFill=0;endSize=0;startSize=20;" parent="1" source="8vVyC6vUNvX2GDnf0Xso-4" target="8vVyC6vUNvX2GDnf0Xso-16" edge="1">
          <mxGeometry relative="1" as="geometry" />
        </mxCell>
        <mxCell id="8vVyC6vUNvX2GDnf0Xso-4" value="RuleBasedSystem" style="html=1;whiteSpace=wrap;" parent="1" vertex="1">
          <mxGeometry x="178" y="140" width="110" height="50" as="geometry" />
        </mxCell>
        <mxCell id="8vVyC6vUNvX2GDnf0Xso-9" style="edgeStyle=orthogonalEdgeStyle;rounded=0;orthogonalLoop=1;jettySize=auto;html=1;exitX=1;exitY=0.5;exitDx=0;exitDy=0;entryX=0;entryY=0.5;entryDx=0;entryDy=0;endArrow=none;endFill=0;startArrow=block;startFill=0;endSize=0;startSize=15;dashed=1;dashPattern=8 8;strokeWidth=1;" parent="1" source="8vVyC6vUNvX2GDnf0Xso-5" target="8vVyC6vUNvX2GDnf0Xso-7" edge="1">
          <mxGeometry relative="1" as="geometry" />
        </mxCell>
        <mxCell id="8vVyC6vUNvX2GDnf0Xso-10" style="edgeStyle=orthogonalEdgeStyle;rounded=0;orthogonalLoop=1;jettySize=auto;html=1;exitX=1;exitY=0.5;exitDx=0;exitDy=0;entryX=0;entryY=0.5;entryDx=0;entryDy=0;endArrow=none;endFill=0;startArrow=block;startFill=0;endSize=0;startSize=15;dashed=1;dashPattern=8 8;" parent="1" source="8vVyC6vUNvX2GDnf0Xso-5" target="8vVyC6vUNvX2GDnf0Xso-8" edge="1">
          <mxGeometry relative="1" as="geometry" />
        </mxCell>
        <mxCell id="8vVyC6vUNvX2GDnf0Xso-56" style="edgeStyle=orthogonalEdgeStyle;rounded=0;orthogonalLoop=1;jettySize=auto;html=1;exitX=1;exitY=0.5;exitDx=0;exitDy=0;entryX=0;entryY=0.5;entryDx=0;entryDy=0;endArrow=none;endFill=0;startArrow=block;startFill=0;endSize=0;startSize=15;dashed=1;dashPattern=8 8;" parent="1" source="8vVyC6vUNvX2GDnf0Xso-5" target="8vVyC6vUNvX2GDnf0Xso-12" edge="1">
          <mxGeometry relative="1" as="geometry" />
        </mxCell>
        <mxCell id="8vVyC6vUNvX2GDnf0Xso-5" value="«interface»&lt;br&gt;&lt;b&gt;Arbiter&lt;/b&gt;" style="html=1;whiteSpace=wrap;" parent="1" vertex="1">
          <mxGeometry x="343" y="140" width="110" height="50" as="geometry" />
        </mxCell>
        <mxCell id="8vVyC6vUNvX2GDnf0Xso-7" value="Arbiter1" style="html=1;whiteSpace=wrap;" parent="1" vertex="1">
          <mxGeometry x="512.5" y="110" width="110" height="50" as="geometry" />
        </mxCell>
        <mxCell id="8vVyC6vUNvX2GDnf0Xso-8" value="Arbiter2" style="html=1;whiteSpace=wrap;" parent="1" vertex="1">
          <mxGeometry x="512.5" y="170" width="110" height="50" as="geometry" />
        </mxCell>
        <mxCell id="8vVyC6vUNvX2GDnf0Xso-12" value="..." style="text;html=1;strokeColor=none;fillColor=none;align=center;verticalAlign=middle;whiteSpace=wrap;rounded=0;fontStyle=1" parent="1" vertex="1">
          <mxGeometry x="512.5" y="230" width="35" height="30" as="geometry" />
        </mxCell>
        <mxCell id="8vVyC6vUNvX2GDnf0Xso-14" value="MVC architecture:&lt;br&gt;RuleBasedSystem = Model&lt;br&gt;GUI = View&lt;br&gt;EditorPlugin = Controller" style="shape=note;whiteSpace=wrap;html=1;backgroundOutline=1;darkOpacity=0.05;size=17;" parent="1" vertex="1">
          <mxGeometry x="248" y="30" width="155" height="100" as="geometry" />
        </mxCell>
        <mxCell id="8vVyC6vUNvX2GDnf0Xso-15" value="Strategy Pattern:&lt;br&gt;Arbiter defines a strategy for RuleBasedSystem" style="shape=note;whiteSpace=wrap;html=1;backgroundOutline=1;darkOpacity=0.05;size=23;" parent="1" vertex="1">
          <mxGeometry x="313" y="200" width="150" height="80" as="geometry" />
        </mxCell>
        <mxCell id="8vVyC6vUNvX2GDnf0Xso-22" style="edgeStyle=orthogonalEdgeStyle;rounded=0;orthogonalLoop=1;jettySize=auto;html=1;exitX=0.5;exitY=1;exitDx=0;exitDy=0;entryX=0.5;entryY=0;entryDx=0;entryDy=0;endArrow=none;endFill=0;startArrow=diamond;startFill=0;endSize=0;startSize=20;" parent="1" source="8vVyC6vUNvX2GDnf0Xso-16" target="8vVyC6vUNvX2GDnf0Xso-21" edge="1">
          <mxGeometry relative="1" as="geometry" />
        </mxCell>
        <mxCell id="8vVyC6vUNvX2GDnf0Xso-57" value="0..*" style="edgeLabel;html=1;align=center;verticalAlign=middle;resizable=0;points=[];" parent="8vVyC6vUNvX2GDnf0Xso-22" vertex="1" connectable="0">
          <mxGeometry x="0.5963" relative="1" as="geometry">
            <mxPoint x="13" as="offset" />
          </mxGeometry>
        </mxCell>
        <mxCell id="8vVyC6vUNvX2GDnf0Xso-16" value="RuleList" style="rounded=0;whiteSpace=wrap;html=1;" parent="1" vertex="1">
          <mxGeometry x="173" y="230" width="120" height="60" as="geometry" />
        </mxCell>
        <mxCell id="8vVyC6vUNvX2GDnf0Xso-19" style="edgeStyle=orthogonalEdgeStyle;rounded=0;orthogonalLoop=1;jettySize=auto;html=1;entryX=0;entryY=0.5;entryDx=0;entryDy=0;endSize=5;" parent="1" source="8vVyC6vUNvX2GDnf0Xso-18" target="8vVyC6vUNvX2GDnf0Xso-16" edge="1">
          <mxGeometry relative="1" as="geometry" />
        </mxCell>
        <mxCell id="8vVyC6vUNvX2GDnf0Xso-20" value="" style="edgeStyle=orthogonalEdgeStyle;rounded=0;orthogonalLoop=1;jettySize=auto;html=1;endSize=7;startSize=0;" parent="1" source="8vVyC6vUNvX2GDnf0Xso-18" target="8vVyC6vUNvX2GDnf0Xso-16" edge="1">
          <mxGeometry relative="1" as="geometry" />
        </mxCell>
        <mxCell id="8vVyC6vUNvX2GDnf0Xso-18" value="RuleSaverAndLoader" style="rounded=0;whiteSpace=wrap;html=1;" parent="1" vertex="1">
          <mxGeometry x="13" y="230" width="120" height="60" as="geometry" />
        </mxCell>
        <mxCell id="8vVyC6vUNvX2GDnf0Xso-44" style="edgeStyle=orthogonalEdgeStyle;rounded=0;orthogonalLoop=1;jettySize=auto;html=1;exitX=0;exitY=0.5;exitDx=0;exitDy=0;entryX=0.5;entryY=0;entryDx=0;entryDy=0;endArrow=none;endFill=0;startArrow=diamond;startFill=1;endSize=0;startSize=20;" parent="1" source="8vVyC6vUNvX2GDnf0Xso-21" target="8vVyC6vUNvX2GDnf0Xso-23" edge="1">
          <mxGeometry relative="1" as="geometry" />
        </mxCell>
        <mxCell id="8vVyC6vUNvX2GDnf0Xso-73" value="1&lt;br&gt;" style="edgeLabel;html=1;align=center;verticalAlign=middle;resizable=0;points=[];" parent="8vVyC6vUNvX2GDnf0Xso-44" vertex="1" connectable="0">
          <mxGeometry x="0.1695" y="2" relative="1" as="geometry">
            <mxPoint x="-21" y="8" as="offset" />
          </mxGeometry>
        </mxCell>
        <mxCell id="8vVyC6vUNvX2GDnf0Xso-72" style="edgeStyle=orthogonalEdgeStyle;rounded=0;orthogonalLoop=1;jettySize=auto;html=1;exitX=1;exitY=0.5;exitDx=0;exitDy=0;entryX=0;entryY=0.5;entryDx=0;entryDy=0;endArrow=none;endFill=0;startArrow=diamond;startFill=1;endSize=0;startSize=20;" parent="1" source="8vVyC6vUNvX2GDnf0Xso-21" target="8vVyC6vUNvX2GDnf0Xso-40" edge="1">
          <mxGeometry relative="1" as="geometry" />
        </mxCell>
        <mxCell id="8vVyC6vUNvX2GDnf0Xso-75" value="1..*" style="edgeLabel;html=1;align=center;verticalAlign=middle;resizable=0;points=[];" parent="8vVyC6vUNvX2GDnf0Xso-72" vertex="1" connectable="0">
          <mxGeometry x="0.164" y="-1" relative="1" as="geometry">
            <mxPoint x="29" y="-11" as="offset" />
          </mxGeometry>
        </mxCell>
        <mxCell id="8vVyC6vUNvX2GDnf0Xso-21" value="Rule" style="rounded=0;whiteSpace=wrap;html=1;" parent="1" vertex="1">
          <mxGeometry x="195.5" y="330" width="75" height="40" as="geometry" />
        </mxCell>
        <mxCell id="8vVyC6vUNvX2GDnf0Xso-34" style="edgeStyle=orthogonalEdgeStyle;rounded=0;orthogonalLoop=1;jettySize=auto;html=1;exitX=0.5;exitY=1;exitDx=0;exitDy=0;entryX=0.5;entryY=0;entryDx=0;entryDy=0;endArrow=none;endFill=0;startArrow=block;startFill=0;endSize=0;startSize=15;dashed=1;dashPattern=8 8;" parent="1" source="8vVyC6vUNvX2GDnf0Xso-23" target="8vVyC6vUNvX2GDnf0Xso-27" edge="1">
          <mxGeometry relative="1" as="geometry" />
        </mxCell>
        <mxCell id="8vVyC6vUNvX2GDnf0Xso-35" style="edgeStyle=orthogonalEdgeStyle;rounded=0;orthogonalLoop=1;jettySize=auto;html=1;exitX=0.5;exitY=1;exitDx=0;exitDy=0;entryX=0.5;entryY=0;entryDx=0;entryDy=0;endArrow=none;endFill=0;startArrow=block;startFill=0;dashed=1;dashPattern=8 8;endSize=0;startSize=15;" parent="1" source="8vVyC6vUNvX2GDnf0Xso-23" target="8vVyC6vUNvX2GDnf0Xso-28" edge="1">
          <mxGeometry relative="1" as="geometry" />
        </mxCell>
        <mxCell id="8vVyC6vUNvX2GDnf0Xso-23" value="«interface»&lt;br&gt;&lt;b&gt;Match&lt;/b&gt;" style="html=1;whiteSpace=wrap;" parent="1" vertex="1">
          <mxGeometry x="73" y="370" width="110" height="50" as="geometry" />
        </mxCell>
        <mxCell id="8vVyC6vUNvX2GDnf0Xso-38" style="edgeStyle=orthogonalEdgeStyle;rounded=0;orthogonalLoop=1;jettySize=auto;html=1;exitX=0.75;exitY=0;exitDx=0;exitDy=0;entryX=1;entryY=0.5;entryDx=0;entryDy=0;endArrow=none;endFill=0;startArrow=diamond;startFill=0;endSize=0;startSize=20;" parent="1" source="8vVyC6vUNvX2GDnf0Xso-28" target="8vVyC6vUNvX2GDnf0Xso-23" edge="1">
          <mxGeometry relative="1" as="geometry" />
        </mxCell>
        <mxCell id="8vVyC6vUNvX2GDnf0Xso-39" value="Composite Pattern:&lt;br&gt;BooleanMatches are composed of Matches" style="shape=note;whiteSpace=wrap;html=1;backgroundOutline=1;darkOpacity=0.05;size=18;" parent="1" vertex="1">
          <mxGeometry x="233" y="380" width="150" height="80" as="geometry" />
        </mxCell>
        <mxCell id="8vVyC6vUNvX2GDnf0Xso-46" style="edgeStyle=orthogonalEdgeStyle;rounded=0;orthogonalLoop=1;jettySize=auto;html=1;exitX=0.5;exitY=1;exitDx=0;exitDy=0;entryX=0;entryY=0.5;entryDx=0;entryDy=0;endArrow=none;endFill=0;startArrow=block;startFill=0;endSize=0;startSize=15;dashed=1;dashPattern=8 8;" parent="1" source="8vVyC6vUNvX2GDnf0Xso-40" target="8vVyC6vUNvX2GDnf0Xso-42" edge="1">
          <mxGeometry relative="1" as="geometry" />
        </mxCell>
        <mxCell id="8vVyC6vUNvX2GDnf0Xso-47" style="edgeStyle=orthogonalEdgeStyle;rounded=0;orthogonalLoop=1;jettySize=auto;html=1;exitX=0.5;exitY=1;exitDx=0;exitDy=0;entryX=0;entryY=0.5;entryDx=0;entryDy=0;endArrow=none;endFill=0;startArrow=block;startFill=0;dashed=1;dashPattern=8 8;startSize=15;endSize=0;" parent="1" source="8vVyC6vUNvX2GDnf0Xso-40" target="8vVyC6vUNvX2GDnf0Xso-43" edge="1">
          <mxGeometry relative="1" as="geometry" />
        </mxCell>
        <mxCell id="8vVyC6vUNvX2GDnf0Xso-71" style="edgeStyle=orthogonalEdgeStyle;rounded=0;orthogonalLoop=1;jettySize=auto;html=1;exitX=0.5;exitY=1;exitDx=0;exitDy=0;entryX=0;entryY=0.5;entryDx=0;entryDy=0;endArrow=none;endFill=0;startArrow=block;startFill=0;endSize=0;startSize=15;dashed=1;dashPattern=8 8;" parent="1" source="8vVyC6vUNvX2GDnf0Xso-40" target="8vVyC6vUNvX2GDnf0Xso-70" edge="1">
          <mxGeometry relative="1" as="geometry" />
        </mxCell>
        <mxCell id="8vVyC6vUNvX2GDnf0Xso-40" value="«interface»&lt;br&gt;&lt;b&gt;Action&lt;/b&gt;" style="html=1;whiteSpace=wrap;" parent="1" vertex="1">
          <mxGeometry x="363" y="325" width="110" height="50" as="geometry" />
        </mxCell>
        <mxCell id="8vVyC6vUNvX2GDnf0Xso-41" value="Action is similar to Command Pattern" style="shape=note;whiteSpace=wrap;html=1;backgroundOutline=1;darkOpacity=0.05;size=23;" parent="1" vertex="1">
          <mxGeometry x="488" y="290" width="150" height="80" as="geometry" />
        </mxCell>
        <mxCell id="8vVyC6vUNvX2GDnf0Xso-42" value="Action1" style="html=1;whiteSpace=wrap;" parent="1" vertex="1">
          <mxGeometry x="438" y="400" width="110" height="50" as="geometry" />
        </mxCell>
        <mxCell id="8vVyC6vUNvX2GDnf0Xso-43" value="Action2" style="html=1;whiteSpace=wrap;" parent="1" vertex="1">
          <mxGeometry x="438" y="460" width="110" height="50" as="geometry" />
        </mxCell>
        <mxCell id="8vVyC6vUNvX2GDnf0Xso-51" style="edgeStyle=orthogonalEdgeStyle;rounded=0;orthogonalLoop=1;jettySize=auto;html=1;exitX=0.75;exitY=0;exitDx=0;exitDy=0;entryX=0.75;entryY=1;entryDx=0;entryDy=0;entryPerimeter=0;endSize=7;startSize=0;" parent="1" source="8vVyC6vUNvX2GDnf0Xso-2" target="8vVyC6vUNvX2GDnf0Xso-1" edge="1">
          <mxGeometry relative="1" as="geometry" />
        </mxCell>
        <mxCell id="8vVyC6vUNvX2GDnf0Xso-55" value="1&lt;br&gt;" style="text;html=1;align=center;verticalAlign=middle;resizable=0;points=[];autosize=1;strokeColor=none;fillColor=none;" parent="1" vertex="1">
          <mxGeometry x="223" y="210" width="30" height="30" as="geometry" />
        </mxCell>
        <mxCell id="8vVyC6vUNvX2GDnf0Xso-62" value="" style="group" parent="1" vertex="1" connectable="0">
          <mxGeometry x="133" y="470" width="110" height="115" as="geometry" />
        </mxCell>
        <mxCell id="8vVyC6vUNvX2GDnf0Xso-28" value="«abstract»&lt;br&gt;&lt;i&gt;BooleanMatch&lt;/i&gt;" style="html=1;whiteSpace=wrap;" parent="8vVyC6vUNvX2GDnf0Xso-62" vertex="1">
          <mxGeometry width="110" height="50" as="geometry" />
        </mxCell>
        <mxCell id="8vVyC6vUNvX2GDnf0Xso-32" value="..." style="text;html=1;strokeColor=none;fillColor=none;align=center;verticalAlign=middle;whiteSpace=wrap;rounded=0;fontStyle=1" parent="8vVyC6vUNvX2GDnf0Xso-62" vertex="1">
          <mxGeometry x="37.5" y="85" width="35" height="30" as="geometry" />
        </mxCell>
        <mxCell id="8vVyC6vUNvX2GDnf0Xso-33" style="edgeStyle=orthogonalEdgeStyle;rounded=0;orthogonalLoop=1;jettySize=auto;html=1;exitX=0.5;exitY=1;exitDx=0;exitDy=0;entryX=0.5;entryY=0;entryDx=0;entryDy=0;endArrow=none;endFill=0;startArrow=block;startFill=0;endSize=0;startSize=15;" parent="8vVyC6vUNvX2GDnf0Xso-62" source="8vVyC6vUNvX2GDnf0Xso-28" target="8vVyC6vUNvX2GDnf0Xso-32" edge="1">
          <mxGeometry relative="1" as="geometry" />
        </mxCell>
        <mxCell id="8vVyC6vUNvX2GDnf0Xso-69" value="" style="group" parent="1" vertex="1" connectable="0">
          <mxGeometry x="13" y="470" width="110" height="120" as="geometry" />
        </mxCell>
        <mxCell id="8vVyC6vUNvX2GDnf0Xso-27" value="«abstract»&lt;br&gt;&lt;i&gt;DatumMatch&lt;/i&gt;" style="html=1;whiteSpace=wrap;" parent="8vVyC6vUNvX2GDnf0Xso-69" vertex="1">
          <mxGeometry width="110" height="50" as="geometry" />
        </mxCell>
        <mxCell id="8vVyC6vUNvX2GDnf0Xso-29" value="..." style="text;html=1;strokeColor=none;fillColor=none;align=center;verticalAlign=middle;whiteSpace=wrap;rounded=0;fontStyle=1" parent="8vVyC6vUNvX2GDnf0Xso-69" vertex="1">
          <mxGeometry x="37.5" y="90" width="35" height="30" as="geometry" />
        </mxCell>
        <mxCell id="8vVyC6vUNvX2GDnf0Xso-30" style="edgeStyle=orthogonalEdgeStyle;rounded=0;orthogonalLoop=1;jettySize=auto;html=1;exitX=0.5;exitY=1;exitDx=0;exitDy=0;endArrow=none;endFill=0;startArrow=block;startFill=0;startSize=15;endSize=0;" parent="8vVyC6vUNvX2GDnf0Xso-69" source="8vVyC6vUNvX2GDnf0Xso-27" target="8vVyC6vUNvX2GDnf0Xso-29" edge="1">
          <mxGeometry relative="1" as="geometry" />
        </mxCell>
        <mxCell id="8vVyC6vUNvX2GDnf0Xso-70" value="..." style="text;html=1;strokeColor=none;fillColor=none;align=center;verticalAlign=middle;whiteSpace=wrap;rounded=0;fontStyle=1" parent="1" vertex="1">
          <mxGeometry x="443" y="520" width="35" height="30" as="geometry" />
        </mxCell>
        <mxCell id="Pt83FY8GmYFkX7C_mq-5-1" value="&lt;h1&gt;Rule-Based Godot&lt;/h1&gt;&lt;p&gt;&lt;b&gt;&lt;font style=&quot;font-size: 14px;&quot;&gt;Simplified UML class diagram&lt;/font&gt;&lt;/b&gt;&lt;/p&gt;" style="text;html=1;strokeColor=none;fillColor=none;spacing=5;spacingTop=-20;whiteSpace=wrap;overflow=hidden;rounded=0;" vertex="1" parent="1">
          <mxGeometry x="420" y="10" width="220" height="70" as="geometry" />
        </mxCell>
      </root>
    </mxGraphModel>
  </diagram>
</mxfile>
